<svg xmlns="http://www.w3.org/2000/svg" width="1440" height="900"><path d="M757,419L698,488L810,521Z" fill="#f5fbb1" stroke="#f5fbb1" stroke-width="1.51"/><path d="M810,521L866,457L757,419Z" fill="#f0f9aa" stroke="#f0f9aa" stroke-width="1.51"/><path d="M757,419L648,349L698,488Z" fill="#fff7b2" stroke="#fff7b2" stroke-width="1.51"/><path d="M759,257L648,349L757,419Z" fill="#ffeaa0" stroke="#ffeaa0" stroke-width="1.51"/><path d="M698,488L773,666L810,521Z" fill="#e2f39a" stroke="#e2f39a" stroke-width="1.51"/><path d="M994,641L947,435L866,457Z" fill="#d3ec8c" stroke="#d3ec8c" stroke-width="1.51"/><path d="M864,274L759,257L757,419Z" fill="#f7e08e" stroke="#f7e08e" stroke-width="1.51"/><path d="M994,641L866,457L810,521Z" fill="#d5ed88" stroke="#d5ed88" stroke-width="1.51"/><path d="M864,274L757,419L866,457Z" fill="#f1ee98" stroke="#f1ee98" stroke-width="1.51"/><path d="M698,488L600,669L773,666Z" fill="#d9ec93" stroke="#d9ec93" stroke-width="1.51"/><path d="M480,433L545,566L698,488Z" fill="#f6eb98" stroke="#f6eb98" stroke-width="1.51"/><path d="M947,435L864,274L866,457Z" fill="#e7eb90" stroke="#e7eb90" stroke-width="1.51"/><path d="M545,566L600,669L698,488Z" fill="#e3e88c" stroke="#e3e88c" stroke-width="1.51"/><path d="M773,666L938,696L810,521Z" fill="#c3e67f" stroke="#c3e67f" stroke-width="1.51"/><path d="M600,669L741,733L773,666Z" fill="#bfe28e" stroke="#bfe28e" stroke-width="1.51"/><path d="M885,771L938,696L773,666Z" fill="#a5d877" stroke="#a5d877" stroke-width="1.51"/><path d="M938,696L994,641L810,521Z" fill="#bae277" stroke="#bae277" stroke-width="1.51"/><path d="M600,669L616,725L741,733Z" fill="#b9d985" stroke="#b9d985" stroke-width="1.51"/><path d="M486,648L616,725L600,669Z" fill="#c3d477" stroke="#c3d477" stroke-width="1.51"/><path d="M648,349L480,433L698,488Z" fill="#ffeea3" stroke="#ffeea3" stroke-width="1.51"/><path d="M545,566L486,648L600,669Z" fill="#d4d876" stroke="#d4d876" stroke-width="1.51"/><path d="M498,232L480,433L648,349Z" fill="#fed481" stroke="#fed481" stroke-width="1.51"/><path d="M947,435L1042,395L864,274Z" fill="#dde384" stroke="#dde384" stroke-width="1.51"/><path d="M1052,559L1042,395L947,435Z" fill="#cfeb91" stroke="#cfeb91" stroke-width="1.51"/><path d="M759,257L629,218L648,349Z" fill="#ffd489" stroke="#ffd489" stroke-width="1.51"/><path d="M682,69L629,218L759,257Z" fill="#ffb57a" stroke="#ffb57a" stroke-width="1.51"/><path d="M994,641L1052,559L947,435Z" fill="#c0e57a" stroke="#c0e57a" stroke-width="1.51"/><path d="M938,696L997,766L994,641Z" fill="#93d16b" stroke="#93d16b" stroke-width="1.51"/><path d="M741,733L885,771L773,666Z" fill="#a9d981" stroke="#a9d981" stroke-width="1.51"/><path d="M729,858L885,771L741,733Z" fill="#97cd7d" stroke="#97cd7d" stroke-width="1.51"/><path d="M434,526L486,648L545,566Z" fill="#e2d476" stroke="#e2d476" stroke-width="1.51"/><path d="M480,433L434,526L545,566Z" fill="#f4db87" stroke="#f4db87" stroke-width="1.51"/><path d="M629,218L498,232L648,349Z" fill="#ffc778" stroke="#ffc778" stroke-width="1.51"/><path d="M480,433L302,377L434,526Z" fill="#ffd08b" stroke="#ffd08b" stroke-width="1.51"/><path d="M885,771L997,766L938,696Z" fill="#8ccb6c" stroke="#8ccb6c" stroke-width="1.51"/><path d="M994,641L1177,671L1052,559Z" fill="#9ad46a" stroke="#9ad46a" stroke-width="1.51"/><path d="M616,725L729,858L741,733Z" fill="#a5d186" stroke="#a5d186" stroke-width="1.51"/><path d="M885,771L898,848L997,766Z" fill="#7fc168" stroke="#7fc168" stroke-width="1.51"/><path d="M573,833L729,858L616,725Z" fill="#9cc578" stroke="#9cc578" stroke-width="1.51"/><path d="M729,858L898,848L885,771Z" fill="#87c06f" stroke="#87c06f" stroke-width="1.51"/><path d="M486,648L573,833L616,725Z" fill="#b3ca73" stroke="#b3ca73" stroke-width="1.51"/><path d="M1042,395L1081,242L864,274Z" fill="#d7cf6f" stroke="#d7cf6f" stroke-width="1.51"/><path d="M864,274L823,73L759,257Z" fill="#f4bb72" stroke="#f4bb72" stroke-width="1.51"/><path d="M1184,400L1081,242L1042,395Z" fill="#c1d174" stroke="#c1d174" stroke-width="1.51"/><path d="M916,70L823,73L864,274Z" fill="#e8a75e" stroke="#e8a75e" stroke-width="1.51"/><path d="M629,218L478,74L498,232Z" fill="#fba05f" stroke="#fba05f" stroke-width="1.51"/><path d="M823,73L682,69L759,257Z" fill="#f6aa71" stroke="#f6aa71" stroke-width="1.51"/><path d="M486,648L414,720L573,833Z" fill="#b5bf69" stroke="#b5bf69" stroke-width="1.51"/><path d="M386,702L414,720L486,648Z" fill="#c4bc62" stroke="#c4bc62" stroke-width="1.51"/><path d="M1204,516L1042,395L1052,559Z" fill="#b7e087" stroke="#b7e087" stroke-width="1.51"/><path d="M1204,516L1184,400L1042,395Z" fill="#b7dd8c" stroke="#b7dd8c" stroke-width="1.51"/><path d="M633,985L684,949L573,833Z" fill="#8ca968" stroke="#8ca968" stroke-width="1.51"/><path d="M434,526L386,702L486,648Z" fill="#d7c667" stroke="#d7c667" stroke-width="1.51"/><path d="M321,661L386,702L434,526Z" fill="#d6bb60" stroke="#d6bb60" stroke-width="1.51"/><path d="M498,232L347,343L480,433Z" fill="#fec272" stroke="#fec272" stroke-width="1.51"/><path d="M385,244L347,343L498,232Z" fill="#fdab5f" stroke="#fdab5f" stroke-width="1.51"/><path d="M1041,111L916,70L864,274Z" fill="#dda558" stroke="#dda558" stroke-width="1.51"/><path d="M823,73L686,19L682,69Z" fill="#e9996c" stroke="#e9996c" stroke-width="1.51"/><path d="M357,153L385,244L498,232Z" fill="#fa9555" stroke="#fa9555" stroke-width="1.51"/><path d="M1177,671L1204,516L1052,559Z" fill="#97d26f" stroke="#97d26f" stroke-width="1.51"/><path d="M997,766L1177,671L994,641Z" fill="#87cb67" stroke="#87cb67" stroke-width="1.51"/><path d="M1190,764L1177,671L997,766Z" fill="#69bd62" stroke="#69bd62" stroke-width="1.51"/><path d="M1148,154L1041,111L1081,242Z" fill="#c69f51" stroke="#c69f51" stroke-width="1.51"/><path d="M1081,242L1041,111L864,274Z" fill="#d9b35c" stroke="#d9b35c" stroke-width="1.51"/><path d="M682,69L478,74L629,218Z" fill="#f59a5f" stroke="#f59a5f" stroke-width="1.51"/><path d="M746,-63L686,19L823,73Z" fill="#d99068" stroke="#d99068" stroke-width="1.51"/><path d="M347,343L302,377L480,433Z" fill="#ffbf76" stroke="#ffbf76" stroke-width="1.51"/><path d="M242,248L302,377L347,343Z" fill="#fba05e" stroke="#fba05e" stroke-width="1.51"/><path d="M573,833L684,949L729,858Z" fill="#8fb171" stroke="#8fb171" stroke-width="1.51"/><path d="M729,858L747,1013L898,848Z" fill="#81ae6b" stroke="#81ae6b" stroke-width="1.51"/><path d="M531,939L573,833L392,908Z" fill="#909955" stroke="#909955" stroke-width="1.51"/><path d="M228,520L321,661L434,526Z" fill="#e6b765" stroke="#e6b765" stroke-width="1.51"/><path d="M392,908L573,833L414,720Z" fill="#9ea85b" stroke="#9ea85b" stroke-width="1.51"/><path d="M385,244L242,248L347,343Z" fill="#fb9a57" stroke="#fb9a57" stroke-width="1.51"/><path d="M686,19L478,74L682,69Z" fill="#e78e5d" stroke="#e78e5d" stroke-width="1.51"/><path d="M1184,400L1227,310L1081,242Z" fill="#b6c36c" stroke="#b6c36c" stroke-width="1.51"/><path d="M1303,409L1227,310L1184,400Z" fill="#a6c774" stroke="#a6c774" stroke-width="1.51"/><path d="M1227,310L1148,154L1081,242Z" fill="#bbae5c" stroke="#bbae5c" stroke-width="1.51"/><path d="M392,908L414,720L241,757Z" fill="#a69a51" stroke="#a69a51" stroke-width="1.51"/><path d="M1328,462L1303,409L1204,516Z" fill="#9acd83" stroke="#9acd83" stroke-width="1.51"/><path d="M1303,409L1257,269L1227,310Z" fill="#a4ba68" stroke="#a4ba68" stroke-width="1.51"/><path d="M1173,923L1190,764L997,766Z" fill="#4eab59" stroke="#4eab59" stroke-width="1.51"/><path d="M1053,962L997,766L898,848Z" fill="#69ad59" stroke="#69ad59" stroke-width="1.51"/><path d="M684,949L747,1013L729,858Z" fill="#8bb278" stroke="#8bb278" stroke-width="1.51"/><path d="M531,939L633,985L573,833Z" fill="#8da460" stroke="#8da460" stroke-width="1.51"/><path d="M916,70L859,-28L823,73Z" fill="#d39156" stroke="#d39156" stroke-width="1.51"/><path d="M686,19L476,-59L478,74Z" fill="#d87d51" stroke="#d87d51" stroke-width="1.51"/><path d="M1075,-26L859,-28L916,70Z" fill="#bc864c" stroke="#bc864c" stroke-width="1.51"/><path d="M1075,-26L916,70L1041,111Z" fill="#bf8a46" stroke="#bf8a46" stroke-width="1.51"/><path d="M478,74L357,153L498,232Z" fill="#f6894f" stroke="#f6894f" stroke-width="1.51"/><path d="M633,985L747,1013L684,949Z" fill="#8baf72" stroke="#8baf72" stroke-width="1.51"/><path d="M129,546L228,520L133,385Z" fill="#efa168" stroke="#efa168" stroke-width="1.51"/><path d="M302,377L228,520L434,526Z" fill="#fcbe7c" stroke="#fcbe7c" stroke-width="1.51"/><path d="M633,985L576,989L747,1013Z" fill="#8cab6c" stroke="#8cab6c" stroke-width="1.51"/><path d="M531,939L576,989L633,985Z" fill="#8da460" stroke="#8da460" stroke-width="1.51"/><path d="M1303,409L1184,400L1204,516Z" fill="#a6d388" stroke="#a6d388" stroke-width="1.51"/><path d="M1227,310L1257,269L1148,154Z" fill="#b0a959" stroke="#b0a959" stroke-width="1.51"/><path d="M859,-28L746,-63L823,73Z" fill="#cf8c5e" stroke="#cf8c5e" stroke-width="1.51"/><path d="M1328,462L1204,516L1361,679Z" fill="#82c16a" stroke="#82c16a" stroke-width="1.51"/><path d="M1007,1039L1053,962L898,848Z" fill="#62a052" stroke="#62a052" stroke-width="1.51"/><path d="M241,757L386,702L321,661Z" fill="#bfa456" stroke="#bfa456" stroke-width="1.51"/><path d="M241,757L414,720L386,702Z" fill="#b9a658" stroke="#b9a658" stroke-width="1.51"/><path d="M531,939L338,1042L576,989Z" fill="#909552" stroke="#909552" stroke-width="1.51"/><path d="M1404,119L1281,89L1257,269Z" fill="#9e8344" stroke="#9e8344" stroke-width="1.51"/><path d="M1361,679L1204,516L1177,671Z" fill="#77bf61" stroke="#77bf61" stroke-width="1.51"/><path d="M357,153L242,248L385,244Z" fill="#f8844c" stroke="#f8844c" stroke-width="1.51"/><path d="M759,-115L704,-98L746,-63Z" fill="#d88f6a" stroke="#d88f6a" stroke-width="1.51"/><path d="M746,-63L704,-98L686,19Z" fill="#da8f6c" stroke="#da8f6c" stroke-width="1.51"/><path d="M343,-27L271,83L357,153Z" fill="#e25738" stroke="#e25738" stroke-width="1.51"/><path d="M163,609L241,757L321,661Z" fill="#c59b4f" stroke="#c59b4f" stroke-width="1.51"/><path d="M859,-28L759,-115L746,-63Z" fill="#d28d62" stroke="#d28d62" stroke-width="1.51"/><path d="M974,-192L759,-115L859,-28Z" fill="#c88a55" stroke="#c88a55" stroke-width="1.51"/><path d="M1148,154L1075,-26L1041,111Z" fill="#ba8944" stroke="#ba8944" stroke-width="1.51"/><path d="M1073,-82L1075,-26L1170,-45Z" fill="#a07a43" stroke="#a07a43" stroke-width="1.51"/><path d="M1053,962L1173,923L997,766Z" fill="#519d51" stroke="#519d51" stroke-width="1.51"/><path d="M1190,764L1361,679L1177,671Z" fill="#59b45d" stroke="#59b45d" stroke-width="1.51"/><path d="M1053,962L1214,989L1173,923Z" fill="#3d924c" stroke="#3d924c" stroke-width="1.51"/><path d="M901,1097L1007,1039L898,848Z" fill="#6ca458" stroke="#6ca458" stroke-width="1.51"/><path d="M228,520L163,609L321,661Z" fill="#dba456" stroke="#dba456" stroke-width="1.51"/><path d="M129,546L163,609L228,520Z" fill="#e09d56" stroke="#e09d56" stroke-width="1.51"/><path d="M498,-94L476,-59L686,19Z" fill="#d57c52" stroke="#d57c52" stroke-width="1.51"/><path d="M357,153L271,83L242,248Z" fill="#f16840" stroke="#f16840" stroke-width="1.51"/><path d="M498,-94L686,19L704,-98Z" fill="#d8865e" stroke="#d8865e" stroke-width="1.51"/><path d="M747,1013L901,1097L898,848Z" fill="#7aab62" stroke="#7aab62" stroke-width="1.51"/><path d="M576,989L901,1097L747,1013Z" fill="#88b174" stroke="#88b174" stroke-width="1.51"/><path d="M133,385L228,520L302,377Z" fill="#faa971" stroke="#faa971" stroke-width="1.51"/><path d="M343,-27L357,153L478,74Z" fill="#e4683f" stroke="#e4683f" stroke-width="1.51"/><path d="M1333,808L1361,679L1190,764Z" fill="#3aa456" stroke="#3aa456" stroke-width="1.51"/><path d="M476,-59L343,-27L478,74Z" fill="#d26642" stroke="#d26642" stroke-width="1.51"/><path d="M440,-140L498,-94L704,-98Z" fill="#d57b52" stroke="#d57b52" stroke-width="1.51"/><path d="M98,875L260,917L241,757Z" fill="#95723b" stroke="#95723b" stroke-width="1.51"/><path d="M133,385L302,377L242,248Z" fill="#f6975a" stroke="#f6975a" stroke-width="1.51"/><path d="M149,267L133,385L242,248Z" fill="#f0844d" stroke="#f0844d" stroke-width="1.51"/><path d="M1075,-26L1073,-82L859,-28Z" fill="#b28246" stroke="#b28246" stroke-width="1.51"/><path d="M1170,-45L1075,-26L1148,154Z" fill="#a37c43" stroke="#a37c43" stroke-width="1.51"/><path d="M144,148L149,267L242,248Z" fill="#ec693e" stroke="#ec693e" stroke-width="1.51"/><path d="M1257,269L1281,89L1148,154Z" fill="#ad914c" stroke="#ad914c" stroke-width="1.51"/><path d="M1494,223L1257,269L1303,409Z" fill="#99a45a" stroke="#99a45a" stroke-width="1.51"/><path d="M1457,439L1303,409L1328,462Z" fill="#93bd7b" stroke="#93bd7b" stroke-width="1.51"/><path d="M271,83L144,148L242,248Z" fill="#ea5a38" stroke="#ea5a38" stroke-width="1.51"/><path d="M440,-140L343,-27L476,-59Z" fill="#d26441" stroke="#d26441" stroke-width="1.51"/><path d="M1173,923L1333,808L1190,764Z" fill="#2e9a51" stroke="#2e9a51" stroke-width="1.51"/><path d="M241,757L260,917L392,908Z" fill="#997f43" stroke="#997f43" stroke-width="1.51"/><path d="M392,908L338,1042L531,939Z" fill="#918b4a" stroke="#918b4a" stroke-width="1.51"/><path d="M576,989L338,1042L901,1097Z" fill="#8da664" stroke="#8da664" stroke-width="1.51"/><path d="M75,823L241,757L163,609Z" fill="#af8644" stroke="#af8644" stroke-width="1.51"/><path d="M1281,89L1170,-45L1148,154Z" fill="#a27c40" stroke="#a27c40" stroke-width="1.51"/><path d="M1173,923L1357,913L1333,808Z" fill="#148646" stroke="#148646" stroke-width="1.51"/><path d="M1007,1039L1214,989L1053,962Z" fill="#4b974e" stroke="#4b974e" stroke-width="1.51"/><path d="M901,1097L1214,989L1007,1039Z" fill="#579c4f" stroke="#579c4f" stroke-width="1.51"/><path d="M343,-27L238,35L271,83Z" fill="#d44634" stroke="#d44634" stroke-width="1.51"/><path d="M1513,500L1449,460L1361,679Z" fill="#76a95e" stroke="#76a95e" stroke-width="1.51"/><path d="M1361,679L1449,460L1328,462Z" fill="#80b567" stroke="#80b567" stroke-width="1.51"/><path d="M1449,460L1457,439L1328,462Z" fill="#8cb679" stroke="#8cb679" stroke-width="1.51"/><path d="M1513,500L1457,439L1449,460Z" fill="#87b073" stroke="#87b073" stroke-width="1.51"/><path d="M498,-94L440,-140L476,-59Z" fill="#d46e47" stroke="#d46e47" stroke-width="1.51"/><path d="M343,-27L162,-41L238,35Z" fill="#c83930" stroke="#c83930" stroke-width="1.51"/><path d="M759,-115L440,-140L704,-98Z" fill="#d8865f" stroke="#d8865f" stroke-width="1.51"/><path d="M238,35L144,148L271,83Z" fill="#de422e" stroke="#de422e" stroke-width="1.51"/><path d="M149,267L-8,297L133,385Z" fill="#e47e4c" stroke="#e47e4c" stroke-width="1.51"/><path d="M260,917L338,1042L392,908Z" fill="#917a41" stroke="#917a41" stroke-width="1.51"/><path d="M1235,-178L974,-192L1073,-82Z" fill="#a27a44" stroke="#a27a44" stroke-width="1.51"/><path d="M1073,-82L974,-192L859,-28Z" fill="#b8844a" stroke="#b8844a" stroke-width="1.51"/><path d="M759,-115L974,-192L440,-140Z" fill="#da906c" stroke="#da906c" stroke-width="1.51"/><path d="M1170,-45L1235,-178L1073,-82Z" fill="#977542" stroke="#977542" stroke-width="1.51"/><path d="M1281,89L1304,11L1170,-45Z" fill="#8d6e3c" stroke="#8d6e3c" stroke-width="1.51"/><path d="M1404,119L1304,11L1281,89Z" fill="#906c37" stroke="#906c37" stroke-width="1.51"/><path d="M129,546L45,606L163,609Z" fill="#d1924e" stroke="#d1924e" stroke-width="1.51"/><path d="M260,917L271,1077L338,1042Z" fill="#91733c" stroke="#91733c" stroke-width="1.51"/><path d="M-41,548L45,606L129,546Z" fill="#c98c51" stroke="#c98c51" stroke-width="1.51"/><path d="M-41,548L129,546L-59,425Z" fill="#d08d5e" stroke="#d08d5e" stroke-width="1.51"/><path d="M1333,808L1454,702L1361,679Z" fill="#3b9951" stroke="#3b9951" stroke-width="1.51"/><path d="M1442,822L1454,702L1333,808Z" fill="#258b49" stroke="#258b49" stroke-width="1.51"/><path d="M1214,989L1357,913L1173,923Z" fill="#218546" stroke="#218546" stroke-width="1.51"/><path d="M1494,223L1404,119L1257,269Z" fill="#988345" stroke="#988345" stroke-width="1.51"/><path d="M1457,439L1494,223L1303,409Z" fill="#8fa661" stroke="#8fa661" stroke-width="1.51"/><path d="M1454,702L1513,500L1361,679Z" fill="#5f9f50" stroke="#5f9f50" stroke-width="1.51"/><path d="M1513,500L1512,402L1457,439Z" fill="#8bb177" stroke="#8bb177" stroke-width="1.51"/><path d="M1454,702L1549,649L1513,500Z" fill="#62a052" stroke="#62a052" stroke-width="1.51"/><path d="M1357,913L1442,822L1333,808Z" fill="#0d8043" stroke="#0d8043" stroke-width="1.51"/><path d="M45,606L75,823L163,609Z" fill="#b48644" stroke="#b48644" stroke-width="1.51"/><path d="M1214,989L1339,986L1357,913Z" fill="#0c7e43" stroke="#0c7e43" stroke-width="1.51"/><path d="M1357,913L1435,928L1442,822Z" fill="#036f3b" stroke="#036f3b" stroke-width="1.51"/><path d="M1419,1001L1339,986L1214,989Z" fill="#0a7b41" stroke="#0a7b41" stroke-width="1.51"/><path d="M75,823L98,875L241,757Z" fill="#967239" stroke="#967239" stroke-width="1.51"/><path d="M150,1066L271,1077L260,917Z" fill="#8d6936" stroke="#8d6936" stroke-width="1.51"/><path d="M338,1042L271,1077L901,1097Z" fill="#8f9855" stroke="#8f9855" stroke-width="1.51"/><path d="M1512,402L1494,223L1457,439Z" fill="#8da25e" stroke="#8da25e" stroke-width="1.51"/><path d="M35,155L-8,297L149,267Z" fill="#db613e" stroke="#db613e" stroke-width="1.51"/><path d="M45,606L-3,772L75,823Z" fill="#9b7841" stroke="#9b7841" stroke-width="1.51"/><path d="M35,155L149,267L144,148Z" fill="#e05236" stroke="#e05236" stroke-width="1.51"/><path d="M238,35L162,-41L144,148Z" fill="#cf312b" stroke="#cf312b" stroke-width="1.51"/><path d="M274,-192L162,-41L343,-27Z" fill="#c93b31" stroke="#c93b31" stroke-width="1.51"/><path d="M162,-41L35,155L144,148Z" fill="#d02c27" stroke="#d02c27" stroke-width="1.51"/><path d="M1535,125L1407,11L1404,119Z" fill="#865c2e" stroke="#865c2e" stroke-width="1.51"/><path d="M1404,119L1407,11L1304,11Z" fill="#846134" stroke="#846134" stroke-width="1.51"/><path d="M1308,-149L1235,-178L1170,-45Z" fill="#8a6c3d" stroke="#8a6c3d" stroke-width="1.51"/><path d="M-59,425L129,546L133,385Z" fill="#e6976e" stroke="#e6976e" stroke-width="1.51"/><path d="M1556,821L1549,649L1454,702Z" fill="#39904c" stroke="#39904c" stroke-width="1.51"/><path d="M1658,341L1580,295L1512,402Z" fill="#8ea05c" stroke="#8ea05c" stroke-width="1.51"/><path d="M1512,402L1580,295L1494,223Z" fill="#8f9753" stroke="#8f9753" stroke-width="1.51"/><path d="M1442,822L1556,821L1454,702Z" fill="#208546" stroke="#208546" stroke-width="1.51"/><path d="M1419,1001L1435,928L1357,913Z" fill="#036e3a" stroke="#036e3a" stroke-width="1.51"/><path d="M1308,-149L1170,-45L1304,11Z" fill="#866a3c" stroke="#866a3c" stroke-width="1.51"/><path d="M-97,680L-3,772L45,606Z" fill="#a27b44" stroke="#a27b44" stroke-width="1.51"/><path d="M75,823L-33,853L98,875Z" fill="#816035" stroke="#816035" stroke-width="1.51"/><path d="M98,875L150,1066L260,917Z" fill="#896131" stroke="#896131" stroke-width="1.51"/><path d="M-8,297L-59,425L133,385Z" fill="#db8458" stroke="#db8458" stroke-width="1.51"/><path d="M-78,404L-59,425L-8,297Z" fill="#d78359" stroke="#d78359" stroke-width="1.51"/><path d="M974,-192L274,-192L440,-140Z" fill="#d67e53" stroke="#d67e53" stroke-width="1.51"/><path d="M440,-140L274,-192L343,-27Z" fill="#cf533a" stroke="#cf533a" stroke-width="1.51"/><path d="M1421,-130L1308,-149L1304,11Z" fill="#7b5e35" stroke="#7b5e35" stroke-width="1.51"/><path d="M1435,928L1556,821L1442,822Z" fill="#05733d" stroke="#05733d" stroke-width="1.51"/><path d="M1339,986L1419,1001L1357,913Z" fill="#05733d" stroke="#05733d" stroke-width="1.51"/><path d="M1590,1080L1419,1001L1214,989Z" fill="#026d39" stroke="#026d39" stroke-width="1.51"/><path d="M1658,341L1512,402L1721,485Z" fill="#8cab6c" stroke="#8cab6c" stroke-width="1.51"/><path d="M1494,223L1535,125L1404,119Z" fill="#8f6d38" stroke="#8f6d38" stroke-width="1.51"/><path d="M-59,425L-106,480L-41,548Z" fill="#d38e64" stroke="#d38e64" stroke-width="1.51"/><path d="M-41,548L-97,680L45,606Z" fill="#b68349" stroke="#b68349" stroke-width="1.51"/><path d="M-128,214L-78,404L-8,297Z" fill="#d47149" stroke="#d47149" stroke-width="1.51"/><path d="M32,1011L150,1066L98,875Z" fill="#7f582e" stroke="#7f582e" stroke-width="1.51"/><path d="M1580,295L1535,125L1494,223Z" fill="#917d42" stroke="#917d42" stroke-width="1.51"/><path d="M1407,11L1421,-130L1304,11Z" fill="#775833" stroke="#775833" stroke-width="1.51"/><path d="M1721,485L1512,402L1513,500Z" fill="#88b174" stroke="#88b174" stroke-width="1.51"/><path d="M1620,864L1556,821L1435,928Z" fill="#046f3b" stroke="#046f3b" stroke-width="1.51"/><path d="M-78,404L-106,480L-59,425Z" fill="#da8d69" stroke="#da8d69" stroke-width="1.51"/><path d="M-122,778L-33,853L-3,772Z" fill="#83683a" stroke="#83683a" stroke-width="1.51"/><path d="M-3,772L-33,853L75,823Z" fill="#816638" stroke="#816638" stroke-width="1.51"/><path d="M-106,480L-97,680L-41,548Z" fill="#c18750" stroke="#c18750" stroke-width="1.51"/><path d="M35,155L-128,214L-8,297Z" fill="#cf543b" stroke="#cf543b" stroke-width="1.51"/><path d="M162,-41L-20,-32L35,155Z" fill="#b61627" stroke="#b61627" stroke-width="1.51"/><path d="M274,-192L133,-163L162,-41Z" fill="#c22a2b" stroke="#c22a2b" stroke-width="1.51"/><path d="M1308,-149L1421,-130L1235,-178Z" fill="#7d6237" stroke="#7d6237" stroke-width="1.51"/><path d="M1570,-124L1421,-130L1407,11Z" fill="#704e2d" stroke="#704e2d" stroke-width="1.51"/><path d="M-33,853L32,1011L98,875Z" fill="#75522d" stroke="#75522d" stroke-width="1.51"/><path d="M1721,485L1513,500L1549,649Z" fill="#77a95e" stroke="#77a95e" stroke-width="1.51"/><path d="M1580,295L1749,123L1535,125Z" fill="#91733c" stroke="#91733c" stroke-width="1.51"/><path d="M1535,125L1600,-21L1407,11Z" fill="#7a542e" stroke="#7a542e" stroke-width="1.51"/><path d="M-106,480L-122,778L-97,680Z" fill="#ad7f45" stroke="#ad7f45" stroke-width="1.51"/><path d="M-78,404L-128,214L-106,480Z" fill="#d68257" stroke="#d68257" stroke-width="1.51"/><path d="M-104,86L-128,214L35,155Z" fill="#c83830" stroke="#c83830" stroke-width="1.51"/><path d="M-97,680L-122,778L-3,772Z" fill="#927240" stroke="#927240" stroke-width="1.51"/><path d="M-33,853L-105,914L32,1011Z" fill="#704e2d" stroke="#704e2d" stroke-width="1.51"/><path d="M-181,1003L-122,778L-106,480Z" fill="#8f703f" stroke="#8f703f" stroke-width="1.51"/><path d="M-23,-121L-20,-32L162,-41Z" fill="#ac0927" stroke="#ac0927" stroke-width="1.51"/><path d="M1556,821L1676,736L1549,649Z" fill="#358f4b" stroke="#358f4b" stroke-width="1.51"/><path d="M1590,1080L1620,864L1435,928Z" fill="#006837" stroke="#006837" stroke-width="1.51"/><path d="M1620,864L1676,736L1556,821Z" fill="#108044" stroke="#108044" stroke-width="1.51"/><path d="M-20,-32L-104,86L35,155Z" fill="#b81827" stroke="#b81827" stroke-width="1.51"/><path d="M1742,607L1721,485L1549,649Z" fill="#6da558" stroke="#6da558" stroke-width="1.51"/><path d="M-122,778L-105,914L-33,853Z" fill="#795c34" stroke="#795c34" stroke-width="1.51"/><path d="M1727,291L1580,295L1658,341Z" fill="#8f9754" stroke="#8f9754" stroke-width="1.51"/><path d="M1732,46L1600,-21L1535,125Z" fill="#7d562e" stroke="#7d562e" stroke-width="1.51"/><path d="M1721,485L1727,291L1658,341Z" fill="#8da563" stroke="#8da563" stroke-width="1.51"/><path d="M-20,-32L-153,19L-104,86Z" fill="#ab0927" stroke="#ab0927" stroke-width="1.51"/><path d="M133,-163L-23,-121L162,-41Z" fill="#b41427" stroke="#b41427" stroke-width="1.51"/><path d="M1721,485L1742,607L1727,291Z" fill="#88b175" stroke="#88b175" stroke-width="1.51"/><path d="M1676,736L1742,607L1549,649Z" fill="#529a4e" stroke="#529a4e" stroke-width="1.51"/><path d="M1745,942L1742,607L1676,736Z" fill="#2a8948" stroke="#2a8948" stroke-width="1.51"/><path d="M1756,-137L1570,-124L1600,-21Z" fill="#704e2d" stroke="#704e2d" stroke-width="1.51"/><path d="M1600,-21L1570,-124L1407,11Z" fill="#704e2d" stroke="#704e2d" stroke-width="1.51"/><path d="M1421,-130L1570,-124L1235,-178Z" fill="#735330" stroke="#735330" stroke-width="1.51"/><path d="M1620,864L1745,942L1676,736Z" fill="#07763e" stroke="#07763e" stroke-width="1.51"/><path d="M1419,1001L1590,1080L1435,928Z" fill="#006837" stroke="#006837" stroke-width="1.51"/><path d="M901,1097L1590,1080L1214,989Z" fill="#258747" stroke="#258747" stroke-width="1.51"/><path d="M-185,-111L-153,19L-20,-32Z" fill="#a50026" stroke="#a50026" stroke-width="1.51"/><path d="M-104,86L-153,19L-128,214Z" fill="#c02529" stroke="#c02529" stroke-width="1.51"/><path d="M-128,214L-181,1003L-106,480Z" fill="#c28851" stroke="#c28851" stroke-width="1.51"/><path d="M1727,291L1749,123L1580,295Z" fill="#918345" stroke="#918345" stroke-width="1.51"/><path d="M1742,607L1749,123L1727,291Z" fill="#8e9f5b" stroke="#8e9f5b" stroke-width="1.51"/><path d="M1749,123L1732,46L1535,125Z" fill="#885f2f" stroke="#885f2f" stroke-width="1.51"/><path d="M-105,914L-181,1003L32,1011Z" fill="#704e2d" stroke="#704e2d" stroke-width="1.51"/><path d="M32,1011L-181,1003L150,1066Z" fill="#704e2d" stroke="#704e2d" stroke-width="1.51"/><path d="M-122,778L-181,1003L-105,914Z" fill="#704f2d" stroke="#704f2d" stroke-width="1.51"/><path d="M-185,-111L-181,1003L-128,214Z" fill="#d68258" stroke="#d68258" stroke-width="1.51"/><path d="M1715,1058L1745,942L1620,864Z" fill="#006837" stroke="#006837" stroke-width="1.51"/><path d="M1742,607L1745,942L1749,123Z" fill="#73a85c" stroke="#73a85c" stroke-width="1.51"/><path d="M1590,1080L1715,1058L1620,864Z" fill="#006837" stroke="#006837" stroke-width="1.51"/><path d="M-153,19L-185,-111L-128,214Z" fill="#b00f27" stroke="#b00f27" stroke-width="1.51"/><path d="M-23,-121L-185,-111L-20,-32Z" fill="#a50026" stroke="#a50026" stroke-width="1.51"/><path d="M133,-163L-185,-111L-23,-121Z" fill="#a50026" stroke="#a50026" stroke-width="1.51"/><path d="M274,-192L-185,-111L133,-163Z" fill="#b11127" stroke="#b11127" stroke-width="1.51"/><path d="M1749,123L1756,-137L1732,46Z" fill="#73502d" stroke="#73502d" stroke-width="1.51"/><path d="M1732,46L1756,-137L1600,-21Z" fill="#704e2d" stroke="#704e2d" stroke-width="1.51"/><path d="M1570,-124L1756,-137L1235,-178Z" fill="#704e2d" stroke="#704e2d" stroke-width="1.51"/><path d="M1745,942L1756,-137L1749,123Z" fill="#8f9754" stroke="#8f9754" stroke-width="1.51"/></svg>